<?xml version="1.0" encoding="UTF-8"?>
<svg id="Layer_1" data-name="Layer 1" xmlns="http://www.w3.org/2000/svg" viewBox="0 0 907.249 317.558">
  <g>
    <g>
      <path d="M0,94.819h19.971v90.778H0v-90.778Z" fill="#517bbe"/>
      <path d="M45.907,94.819h18.415l42.536,55.893v-55.893h19.712v90.778h-16.988l-43.962-57.709v57.709h-19.712v-90.778Z" fill="#517bbe"/>
      <path d="M151.598,94.819h35.404c7.088,0,13.594,1.147,19.517,3.437,5.921,2.292,11.023,5.469,15.303,9.532,4.279,4.065,7.586,8.841,9.921,14.33,2.334,5.491,3.501,11.435,3.501,17.832v.259c0,6.399-1.167,12.364-3.501,17.896-2.334,5.534-5.642,10.332-9.921,14.395-4.28,4.065-9.382,7.262-15.303,9.597-5.923,2.334-12.429,3.501-19.517,3.501h-35.404v-90.778ZM187.001,167.571c4.063,0,7.781-.648,11.152-1.945s6.246-3.155,8.624-5.577c2.377-2.419,4.235-5.272,5.577-8.559,1.339-3.285,2.01-6.959,2.01-11.023v-.259c0-3.976-.671-7.652-2.01-11.023-1.342-3.372-3.199-6.267-5.577-8.688-2.378-2.419-5.252-4.3-8.624-5.641-3.372-1.339-7.09-2.01-11.152-2.01h-15.432v54.726h15.432Z" fill="#517bbe"/>
      <path d="M257.16,94.819h19.971v90.778h-19.971v-90.778Z" fill="#517bbe"/>
      <path d="M334.191,94.171h18.414l38.905,91.426h-20.88l-8.299-20.36h-38.386l-8.299,20.36h-20.361l38.905-91.426ZM355.199,147.6l-12.061-29.438-12.06,29.438h24.12Z" fill="#517bbe"/>
      <path d="M451.811,94.819h19.971v90.778h-19.971v-90.778Z" fill="#fff"/>
      <path d="M497.718,94.819h18.415l42.536,55.893v-55.893h19.712v90.778h-16.988l-43.962-57.709v57.709h-19.712v-90.778Z" fill="#fff"/>
      <path d="M603.408,94.819h35.404c7.088,0,13.594,1.147,19.517,3.437,5.921,2.292,11.023,5.469,15.303,9.532,4.279,4.065,7.586,8.841,9.921,14.33,2.334,5.491,3.501,11.435,3.501,17.832v.259c0,6.399-1.167,12.364-3.501,17.896-2.334,5.534-5.642,10.332-9.921,14.395-4.28,4.065-9.382,7.262-15.303,9.597-5.923,2.334-12.429,3.501-19.517,3.501h-35.404v-90.778ZM638.812,167.571c4.063,0,7.781-.648,11.152-1.945,3.372-1.297,6.246-3.155,8.624-5.577,2.377-2.419,4.235-5.272,5.577-8.559,1.339-3.285,2.01-6.959,2.01-11.023v-.259c0-3.976-.671-7.652-2.01-11.023-1.342-3.372-3.199-6.267-5.577-8.688-2.378-2.419-5.252-4.3-8.624-5.641-3.372-1.339-7.09-2.01-11.152-2.01h-15.432v54.726h15.432Z" fill="#fff"/>
      <path d="M708.062,94.819h68.343v17.766h-48.631v18.415h42.795v17.766h-42.795v19.064h49.279v17.766h-68.991v-90.778Z" fill="#fff"/>
    </g>
    <g>
      <path d="M209.714,233.948h61.268v13.171h-46.803v22.461h41.511v13.171h-41.511v33.515h-14.465v-82.317Z" fill="#fff"/>
      <path d="M297.325,281.339v-47.391h14.465v46.803c0,15.287,7.879,23.401,20.815,23.401,12.818,0,20.697-7.644,20.697-22.814v-47.391h14.464v46.686c0,24.578-13.876,36.925-35.396,36.925-21.402,0-35.044-12.347-35.044-36.22Z" fill="#fff"/>
      <path d="M399.401,233.948h13.406l44.098,56.916v-56.916h14.229v82.317h-12.112l-45.392-58.563v58.563h-14.229v-82.317Z" fill="#fff"/>
      <path d="M504.065,233.948h30.692c25.872,0,43.746,17.757,43.746,40.923v.235c0,23.166-17.875,41.158-43.746,41.158h-30.692v-82.317ZM518.53,247.119v55.976h16.228c17.287,0,28.576-11.642,28.576-27.753v-.235c0-16.111-11.289-27.988-28.576-27.988h-16.228Z" fill="#fff"/>
      <path d="M601.087,304.27l8.702-10.348c7.878,6.82,15.875,10.701,25.988,10.701,8.937,0,14.581-4.233,14.581-10.348v-.235c0-5.88-3.292-9.055-18.58-12.583-17.521-4.233-27.4-9.408-27.4-24.578v-.235c0-14.112,11.76-23.872,28.105-23.872,11.996,0,21.521,3.645,29.87,10.348l-7.762,10.936c-7.408-5.527-14.817-8.467-22.343-8.467-8.467,0-13.406,4.351-13.406,9.761v.235c0,6.35,3.763,9.173,19.638,12.936,17.405,4.233,26.342,10.466,26.342,24.107v.235c0,15.405-12.112,24.578-29.399,24.578-12.582,0-24.46-4.351-34.338-13.171Z" fill="#fff"/>
    </g>
  </g>
  <path d="M906.48,34.63l-6.014-2.088-69.763,121.142-1.809-.699-40.757-58.097,25.504-.971c.71.242,7.631,10.557,8.722,12.204,1.322,1.995,3.433,8.554,6.207,6.82l53.009-91.333.018-2.838-4.695-3.975c9.797-5.383,19.823-11.151,30.298-14.796.283.791-.719,1.584-.719,1.799v32.831Z" fill="#517bbe"/>
  <path d="M872.566,184.708c-4.031.632-24.079,1.859-26.021-.489l-14.401-25.18,11.198-19.047,29.224,44.717Z" fill="#fff"/>
  <polygon points="789.587 185.597 814.501 141.549 816.626 142.324 827.906 159.256 813.038 185.597 789.587 185.597" fill="#fff"/>
</svg>